<svg width="57" height="56" viewBox="0 0 57 56" fill="none" xmlns="http://www.w3.org/2000/svg">
<path d="M33.0215 27.6188L26.7293 20.937C26.6004 20.7996 26.4473 20.6906 26.2786 20.6162C26.11 20.5419 25.9292 20.5036 25.7465 20.5036C25.5639 20.5036 25.3831 20.5419 25.2145 20.6162C25.0458 20.6906 24.8927 20.7996 24.7638 20.937L0.43568 45.315C0.300771 45.4501 0.192724 45.6125 0.117922 45.7927C0.04312 45.9729 0.00308113 46.1672 0.000170929 46.3641C-0.00273927 46.561 0.0315382 46.7566 0.100978 46.9392C0.170418 47.1218 0.273612 47.2877 0.404462 47.4273L8.04131 55.5668C8.17241 55.7064 8.32857 55.8167 8.50053 55.8911C8.6725 55.9655 8.85678 56.0025 9.04244 55.9999C9.22811 55.9972 9.41139 55.955 9.58143 55.8758C9.75146 55.7965 9.90479 55.6819 10.0323 55.5385L33.0192 29.7053C33.1485 29.5686 33.2512 29.4061 33.3213 29.2272C33.3914 29.0482 33.4276 28.8564 33.4278 28.6626C33.4281 28.4688 33.3923 28.2768 33.3226 28.0977C33.2528 27.9186 33.1505 27.7559 33.0215 27.6188ZM56.7298 20.549L51.6552 15.1971C51.4231 14.9514 51.1475 14.757 50.8442 14.625C50.541 14.4931 50.2162 14.4262 49.8885 14.4284C49.3575 14.4289 48.8402 14.6067 48.4097 14.9368C48.4097 14.884 48.4166 14.8324 48.4201 14.7869C48.4721 13.9887 48.553 12.7828 47.8188 11.6898C46.9459 10.4401 45.9875 9.26048 44.9514 8.1604C44.9486 8.15682 44.9455 8.15353 44.9422 8.15057C43.4021 6.53937 40.0502 3.50486 34.9154 1.28087C32.9672 0.43252 30.8814 -0.00261148 28.7758 1.17907e-05C25.1268 1.17907e-05 22.3519 1.74875 21.2893 2.78523C20.243 3.79931 19.5567 5.16467 19.3457 6.65235L21.1957 7.85952C21.1957 7.85952 22.1276 7.61391 22.7982 7.44322C23.4988 7.28451 24.2177 7.23691 24.9314 7.30199C26.4565 7.43585 28.2602 8.24022 29.058 8.90951C30.4107 10.0651 31.0617 11.6223 31.1692 13.9556C31.1924 14.475 30.0685 16.5774 28.3758 18.8481C28.235 19.0369 28.1644 19.274 28.1774 19.5145C28.1904 19.7549 28.2861 19.9819 28.4463 20.1523L33.6921 25.7239C33.8602 25.9009 34.0857 26.0027 34.3223 26.0084C34.5589 26.0141 34.7885 25.9233 34.9639 25.7547C36.3595 24.4038 38.4893 22.3161 38.9726 21.9981C39.8617 21.4172 40.4976 21.3054 40.6722 21.2858C41.1253 21.2386 41.581 21.3406 41.9776 21.5781C41.9796 21.5991 41.9774 21.6203 41.9712 21.6404C41.9651 21.6605 41.955 21.679 41.9418 21.6947L41.7313 21.9072L41.6966 21.9416C41.4641 22.1876 41.2797 22.4801 41.1541 22.8021C41.0285 23.1242 40.9641 23.4695 40.9646 23.8181C40.9651 24.1667 41.0306 24.5117 41.1572 24.8333C41.2839 25.155 41.4691 25.4468 41.7024 25.692L46.784 31.0561C46.9573 31.2391 47.1918 31.3418 47.4361 31.3418C47.6805 31.3418 47.9149 31.2391 48.0882 31.0561L56.7229 21.944C56.8101 21.8532 56.8794 21.7449 56.927 21.6254C56.9745 21.506 56.9993 21.3777 57 21.248C57.0006 21.1183 56.9771 20.9898 56.9307 20.8698C56.8844 20.7498 56.8161 20.6408 56.7298 20.549Z" fill="white"/>
</svg>
