<svg width="68" height="78" viewBox="0 0 68 78" fill="none" xmlns="http://www.w3.org/2000/svg">
<path d="M33.5709 15.5485C31.238 15.5485 29.2416 14.7867 27.5816 13.2629C25.9189 11.7417 25.0875 9.9122 25.0875 7.77427C25.0875 5.63635 25.9189 3.80551 27.5816 2.28175C29.2416 0.760583 31.238 0 33.5709 0C35.9038 0 37.9017 0.760583 39.5644 2.28175C41.2244 3.80551 42.0543 5.63635 42.0543 7.77427C42.0543 9.9122 41.2244 11.7417 39.5644 13.2629C37.9017 14.7867 35.9038 15.5485 33.5709 15.5485ZM25.0875 77.7427C23.8857 77.7427 22.879 77.3696 22.0674 76.6232C21.253 75.8795 20.8458 74.9569 20.8458 73.8556V26.3353C15.1902 24.9748 10.5427 22.2707 6.90335 18.2229C3.26115 14.1725 0.980528 9.55588 0.0614937 4.37303C-0.150591 3.20689 0.185917 2.18587 1.07102 1.30996C1.95329 0.436655 3.10138 0 4.51528 0C5.50501 0 6.37173 0.323928 7.11544 0.971784C7.85632 1.61964 8.29746 2.39707 8.43885 3.30407C9.21649 7.90384 11.408 11.7417 15.0135 14.8178C18.6189 17.8964 23.0374 19.4357 28.2688 19.4357H38.873C40.9939 19.4357 42.9733 19.792 44.8114 20.5046C46.6495 21.2173 48.3108 22.2539 49.7954 23.6144L66.0199 38.4827C66.7976 39.1953 67.1864 40.1023 67.1864 41.2036C67.1864 42.305 66.7976 43.212 66.0199 43.9246C65.2423 44.6373 64.2525 44.9936 63.0507 44.9936C61.8489 44.9936 60.8592 44.6373 60.0815 43.9246L46.296 31.2914V73.8556C46.296 74.9569 45.8902 75.8795 45.0786 76.6232C44.2642 77.3696 43.2561 77.7427 42.0543 77.7427C40.8525 77.7427 39.8458 77.3696 39.0342 76.6232C38.2198 75.8795 37.8126 74.9569 37.8126 73.8556V54.4199H29.3292V73.8556C29.3292 74.9569 28.9234 75.8795 28.1118 76.6232C27.2974 77.3696 26.2893 77.7427 25.0875 77.7427Z" fill="white"/>
</svg>
