<svg width="23" height="23" viewBox="0 0 23 23" fill="none" xmlns="http://www.w3.org/2000/svg">
<path d="M22.7186 11.3592C22.7186 5.08566 17.6329 -7.43866e-05 11.3593 -7.43866e-05C5.08574 -7.43866e-05 0 5.08566 0 11.3592C0 17.029 4.15394 21.7284 9.58442 22.5806V14.6428H6.70022V11.3592H9.58442V8.85664C9.58442 6.00972 11.2803 4.43716 13.875 4.43716C15.1178 4.43716 16.4178 4.65902 16.4178 4.65902V7.45448H14.9854C13.5743 7.45448 13.1342 8.3301 13.1342 9.22842V11.3592H16.2846L15.781 14.6428H13.1342V22.5806C18.5647 21.7284 22.7186 17.029 22.7186 11.3592Z" fill="white"/>
</svg>
