<svg width="67" height="64" viewBox="0 0 67 64" fill="none" xmlns="http://www.w3.org/2000/svg">
<path d="M35.0631 0.0956061L35.3604 0.113878H45.8603L46.1027 0.100174C47.4043 -0.0420046 48.7179 -0.0328068 50.0173 0.127582C51.7586 0.212217 53.4573 0.693465 54.9838 1.53453C57.8649 2.84098 60.3801 4.94683 62.1728 7.70133C63.8252 10.2326 64.7598 13.1638 64.8774 16.1834C64.995 19.2029 64.2911 22.1978 62.8405 24.8496L48.1378 9.97619C47.9247 9.76149 47.6711 9.59117 47.3916 9.47512C47.1121 9.35907 46.8124 9.29959 46.5097 9.30013H40.4228C39.9244 9.29946 39.4395 9.46147 39.0417 9.7615L29.2186 17.1936C28.618 17.6467 27.9245 17.9615 27.1877 18.1155C26.451 18.2694 25.6893 18.2587 24.9573 18.0841C24.2252 17.9095 23.5408 17.5752 22.9532 17.1054C22.3657 16.6356 21.8894 16.0417 21.5585 15.3664C21.0521 14.3232 20.9239 13.1367 21.1958 12.0095C21.4677 10.8823 22.1229 9.88434 23.0494 9.18593L35.0631 0.0956061ZM16.7842 40.5453L16.7201 40.6046L13.2308 44.0763L13.1714 44.1311C12.652 44.6173 11.9639 44.8828 11.2523 44.8717C10.5407 44.8606 9.86123 44.5738 9.35734 44.0718C9.10223 43.821 8.89962 43.522 8.76133 43.1922C8.62304 42.8624 8.55182 42.5085 8.55182 42.1509C8.55182 41.7934 8.62304 41.4394 8.76133 41.1096C8.89962 40.7799 9.10223 40.4809 9.35734 40.2301L12.8512 36.763C13.3655 36.2511 14.062 35.9637 14.788 35.9637C15.514 35.9637 16.2104 36.2511 16.7247 36.763C17.7765 37.8045 17.7948 39.4809 16.7842 40.5453ZM16.4137 47.3516C15.4076 48.4159 15.4259 50.0924 16.4732 51.1339C16.9875 51.6458 17.6839 51.9332 18.4099 51.9332C19.1359 51.9332 19.8324 51.6458 20.3466 51.1339L23.8405 47.6668C24.1272 47.3829 24.3467 47.0386 24.4829 46.6591C24.6191 46.2795 24.6687 45.8744 24.6279 45.4732C24.5871 45.0721 24.4571 44.6851 24.2473 44.3407C24.0374 43.9962 23.7532 43.703 23.4152 43.4825C22.9012 43.1434 22.2879 42.9869 21.674 43.0383C21.0602 43.0897 20.4815 43.3459 20.0311 43.7657L19.9671 43.8251L16.4778 47.2922L16.4137 47.3516ZM8.17289 31.126C8.428 31.3768 8.6306 31.6758 8.76889 32.0056C8.90719 32.3354 8.97841 32.6894 8.97841 33.0469C8.97841 33.4044 8.90719 33.7584 8.76889 34.0882C8.6306 34.4179 8.428 34.7169 8.17289 34.9677L4.67899 38.4348C4.16469 38.9467 3.46827 39.2341 2.74225 39.2341C2.01624 39.2341 1.31981 38.9467 0.805519 38.4348C0.550409 38.184 0.347808 37.8851 0.209515 37.5553C0.0712211 37.2255 0 36.8715 0 36.514C0 36.1565 0.0712211 35.8025 0.209515 35.4727C0.347808 35.1429 0.550409 34.844 0.805519 34.5932L4.29942 31.1215C4.81371 30.6096 5.51014 30.3222 6.23615 30.3222C6.96217 30.3222 7.65859 30.6096 8.17289 31.1215M30.9564 50.8826C31.2115 51.1334 31.4141 51.4324 31.5524 51.7622C31.6907 52.092 31.7619 52.446 31.7619 52.8035C31.7619 53.161 31.6907 53.515 31.5524 53.8448C31.4141 54.1745 31.2115 54.4735 30.9564 54.7243L27.4625 58.196C26.9482 58.7079 26.2518 58.9953 25.5258 58.9953C24.7997 58.9953 24.1033 58.7079 23.589 58.196C23.1525 57.7666 22.8753 57.2016 22.8029 56.5938C22.7306 55.9861 22.8675 55.3719 23.1912 54.8522L23.2049 54.834C23.3142 54.6586 23.4431 54.4962 23.589 54.3498L27.0829 50.8826C27.5972 50.3708 28.2936 50.0834 29.0197 50.0834C29.7457 50.0834 30.4421 50.3708 30.9564 50.8826ZM7.17594 6.44513C9.71874 3.92248 12.8458 2.06596 16.2794 1.04038C19.713 0.0148016 23.347 -0.148109 26.8588 0.56611L20.2872 5.54523C19.2799 6.30761 18.4334 7.26134 17.7963 8.35161C17.1592 9.44187 16.7442 10.6472 16.5751 11.8982C16.4059 13.1492 16.486 14.4213 16.8107 15.6413C17.1354 16.8613 17.6983 18.0052 18.4671 19.0071C20.0221 21.0331 22.3164 22.3624 24.8491 22.7047C27.3818 23.0471 29.9472 22.3747 31.9854 20.8343L41.1957 13.8681H45.3527L54.2155 22.6615L54.2338 22.6387L61.5874 30.08L61.6972 30.185L65.653 34.1364C66.4912 34.9834 66.9728 36.1189 66.9989 37.3096C67.025 38.5003 66.5937 39.6558 65.7934 40.5387C64.9932 41.4217 63.8849 41.965 62.6961 42.0571C61.5074 42.1492 60.3284 41.7831 59.4015 41.034L59.0676 40.7051L58.8207 40.4904L54.9335 36.6076C54.5047 36.1788 53.923 35.9376 53.3162 35.9372C52.7094 35.9367 52.1273 36.1771 51.698 36.6054C51.2686 37.0336 51.0272 37.6147 51.0267 38.2208C51.0263 38.8269 51.2669 39.4083 51.6957 39.8372L55.8207 43.9576C55.9792 44.1098 56.1393 44.2575 56.3009 44.4007L56.4381 44.5377C57.0312 45.1295 57.3646 45.9324 57.365 46.7698C57.3655 47.6072 57.0328 48.4105 56.4404 49.0029C55.8479 49.5953 55.044 49.9284 54.2057 49.9288C53.3674 49.9293 52.5632 49.597 51.9701 49.0052L51.3619 48.4022C51.0402 48.0818 50.6302 47.8644 50.1843 47.7777C49.7384 47.691 49.2768 47.7389 48.8583 47.9153C48.4398 48.0918 48.0833 48.3887 47.8345 48.7683C47.5856 49.1479 47.4556 49.593 47.4609 50.0467C47.4549 50.3537 47.5109 50.6588 47.6257 50.9437C47.7404 51.2286 47.9114 51.4875 48.1286 51.7049L48.9289 52.5043C49.1971 52.7721 49.4098 53.0901 49.5549 53.4401C49.7 53.79 49.7747 54.1651 49.7747 54.5439C49.7747 54.9227 49.7 55.2978 49.5549 55.6477C49.4098 55.9977 49.1971 56.3157 48.9289 56.5835C48.6608 56.8514 48.3424 57.0638 47.9921 57.2088C47.6417 57.3537 47.2662 57.4283 46.887 57.4283C46.5078 57.4283 46.1323 57.3537 45.7819 57.2088C45.4316 57.0638 45.1132 56.8514 44.8451 56.5835L44.4381 56.1724C44.2988 56.0105 44.1539 55.8536 44.0036 55.7019L43.2582 54.9573C42.8269 54.5413 42.2494 54.311 41.6498 54.3162C41.0503 54.3214 40.4768 54.5617 40.0528 54.9851C39.6289 55.4086 39.3884 55.9815 39.3832 56.5803C39.378 57.1792 39.6085 57.7561 40.025 58.1869L40.5829 58.7442C40.653 58.8355 40.7292 58.9254 40.8116 59.0137L41.0356 59.233C41.4918 59.8241 41.7075 60.5655 41.6396 61.3087C41.5718 62.052 41.2254 62.7422 40.6697 63.2411C40.1141 63.7401 39.3903 64.011 38.6432 63.9996C37.8961 63.9883 37.181 63.6954 36.6408 63.1797L32.685 59.4568L34.2033 57.9493C34.8828 57.2766 35.4221 56.4762 35.7902 55.5941C36.1582 54.7121 36.3477 53.7659 36.3477 52.8103C36.3477 51.8548 36.1582 50.9086 35.7902 50.0266C35.4221 49.1445 34.8828 48.3441 34.2033 47.6713C32.8782 46.3526 31.0977 45.5908 29.2277 45.5427C29.1771 43.6842 28.4104 41.917 27.0875 40.6092C25.7635 39.2915 23.9848 38.5299 22.1165 38.4805C22.0646 36.6214 21.2962 34.8541 19.9717 33.5471C19.1253 32.7024 18.0845 32.0779 16.9404 31.7282C15.7963 31.3786 14.5838 31.3146 13.4092 31.5417C13.1111 30.1634 12.4202 28.9006 11.4198 27.9056C10.1313 26.6314 8.41735 25.8769 6.6064 25.7867C4.79545 25.6965 3.01487 26.2769 1.60582 27.4168C0.583211 23.7422 0.561172 19.8616 1.54198 16.1757C2.52279 12.4897 4.47089 9.13217 7.18508 6.4497" fill="white"/>
</svg>
