<svg width="55" height="55" viewBox="0 0 55 55" fill="none" xmlns="http://www.w3.org/2000/svg">
<path d="M48.1249 0L34.3747 10.3125V16.9791L25.4553 25.8983C26.1847 26.3549 26.8808 26.8716 27.5039 27.4957C28.1269 28.1188 28.6447 28.8148 29.1013 29.5442L38.0206 20.625H44.6873L55 6.875L48.1249 0ZM13.7494 29.9267L1.17226 42.5036C-0.390753 44.0666 -0.390753 46.6018 1.17226 48.1658L6.83347 53.827C8.39756 55.391 10.9317 55.391 12.4958 53.827L25.0729 41.25C28.2 38.1229 28.2 33.0537 25.0729 29.9267C21.9458 26.7996 16.8765 26.7996 13.7494 29.9267Z" fill="white"/>
</svg>
