<svg width="42" height="54" viewBox="0 0 42 54" fill="none" xmlns="http://www.w3.org/2000/svg">
<path d="M14.91 30.06L21 25.5343L27.0638 30.06L24.7537 22.7314L30.8438 18H23.3887L21 10.7743L18.6112 18H11.1562L17.22 22.7314L14.91 30.06ZM42 20.5714C42 9.20571 32.6025 0 21 0C9.3975 0 0 9.20571 0 20.5714C0 25.7914 1.995 30.5229 5.25 34.1486V54L21 48.8571L36.75 54V34.1486C40.005 30.5229 42 25.7914 42 20.5714ZM21 5.14286C29.6887 5.14286 36.75 12.06 36.75 20.5714C36.75 29.0829 29.6887 36 21 36C12.3112 36 5.25 29.0829 5.25 20.5714C5.25 12.06 12.3112 5.14286 21 5.14286Z" fill="white"/>
</svg>
