<svg width="57" height="56" viewBox="0 0 57 56" fill="none" xmlns="http://www.w3.org/2000/svg">
<path d="M55.674 11.1556C55.5274 10.8756 55.3155 10.6335 55.0556 10.4491C54.7958 10.2648 54.4952 10.1433 54.1785 10.0946C53.8617 10.0458 53.5378 10.0713 53.2329 10.1688C52.9281 10.2663 52.651 10.4332 52.4243 10.6557L44.6066 18.3385C44.2228 18.71 43.7057 18.9182 43.1669 18.9182C42.6281 18.9182 42.1109 18.71 41.7272 18.3385L38.3476 15.0145C38.1586 14.8288 38.0085 14.6084 37.9062 14.3658C37.8039 14.1232 37.7512 13.8631 37.7512 13.6005C37.7512 13.3379 37.8039 13.0779 37.9062 12.8353C38.0085 12.5927 38.1586 12.3722 38.3476 12.1866L46.1322 4.53999C46.3656 4.31083 46.5387 4.0294 46.6367 3.71992C46.7348 3.41044 46.7547 3.08221 46.6948 2.76348C46.635 2.44475 46.4972 2.14509 46.2932 1.89031C46.0892 1.63552 45.8253 1.43325 45.524 1.30092C39.6442 -1.28084 32.305 0.0662747 27.6773 4.57748C23.7455 8.41138 22.5736 14.4022 24.4644 21.014C24.5664 21.3666 24.567 21.74 24.4661 22.0929C24.3653 22.4458 24.167 22.7644 23.8931 23.0134L2.71012 42.0142C1.88489 42.7419 1.21926 43.6271 0.753821 44.6157C0.288387 45.6044 0.0329105 46.6758 0.00297513 47.7646C-0.0269603 48.8534 0.169273 49.9368 0.579706 50.9487C0.990138 51.9606 1.60616 52.8797 2.39021 53.6501C3.17425 54.4204 4.10987 55.0258 5.14 55.4294C6.17012 55.8329 7.27316 56.0261 8.38181 55.9972C9.49047 55.9683 10.5815 55.7178 11.5884 55.2612C12.5952 54.8045 13.4968 54.1511 14.2381 53.341L33.7924 32.4907C34.0423 32.2252 34.3613 32.0318 34.7149 31.9311C35.0685 31.8305 35.4433 31.8265 35.799 31.9196C37.7157 32.4354 39.6928 32.703 41.6801 32.7157C45.9299 32.7157 49.6593 31.3648 52.3492 28.7618C57.3307 23.9419 58.0903 15.7668 55.674 11.1556ZM8.58736 51.9726C7.74935 52.0625 6.90361 51.8946 6.16686 51.4923C5.4301 51.09 4.83866 50.473 4.47416 49.7265C4.10966 48.98 3.99006 48.1408 4.13188 47.3247C4.2737 46.5086 4.66994 45.7558 5.26591 45.1703C5.86189 44.5848 6.62821 44.1953 7.45913 44.0558C8.29005 43.9162 9.1446 44.0334 9.90484 44.3911C10.6651 44.7488 11.2935 45.3295 11.7034 46.0529C12.1133 46.7763 12.2845 47.6069 12.1934 48.4299C12.093 49.3355 11.6809 50.1803 11.0252 50.8245C10.3694 51.4688 9.5094 51.8738 8.58736 51.9726Z" fill="white"/>
</svg>
