<svg width="17" height="19" viewBox="0 0 17 19" fill="none" xmlns="http://www.w3.org/2000/svg">
<path d="M14.4608 3.80839C13.4105 3.14117 12.6531 2.07314 12.4164 0.828781C12.3655 0.559987 12.3372 0.283091 12.3372 0H8.98579L8.98041 13.0908C8.92418 14.5568 7.68611 15.7335 6.16884 15.7335C5.69698 15.7335 5.253 15.6186 4.86182 15.418C3.96505 14.9581 3.3514 14.0421 3.3514 12.9879C3.3514 11.4738 4.61538 10.2418 6.16835 10.2418C6.45831 10.2418 6.73653 10.2885 6.9996 10.3686V7.03391C6.72724 6.99769 6.45048 6.97529 6.16835 6.97529C2.76708 6.97529 0 9.67228 0 12.9879C0 15.0219 1.04248 16.822 2.63359 17.9105C3.63549 18.5963 4.85449 19 6.16884 19C9.57011 19 12.3372 16.303 12.3372 12.9879V6.34954C13.6515 7.26887 15.2622 7.81075 17 7.81075V4.54423C16.0641 4.54423 15.1923 4.27306 14.4608 3.80839Z" fill="white"/>
</svg>
